<svg width="15" height="15" viewBox="0 0 15 15" fill="none" xmlns="http://www.w3.org/2000/svg">
<path d="M9.72222 7.49738L14.544 2.67726C15.152 2.06951 15.152 1.06357 14.544 0.455816C13.9361 -0.151939 12.9298 -0.151939 12.3218 0.455816L7.5 5.27593L2.6782 0.455816C2.07023 -0.151939 1.06394 -0.151939 0.455975 0.455816C-0.151992 1.06357 -0.151992 2.06951 0.455975 2.67726L5.27778 7.49738L0.455975 12.3175C-0.151992 12.9253 -0.151992 13.9312 0.455975 14.5389C0.77044 14.8533 1.16876 15 1.56709 15C1.96541 15 2.36373 14.8533 2.6782 14.5389L7.5 9.71883L12.3218 14.5389C12.6363 14.8533 13.0346 15 13.4329 15C13.8312 15 14.2296 14.8533 14.544 14.5389C15.152 13.9312 15.152 12.9253 14.544 12.3175L9.72222 7.49738Z" fill="#292D32"/>
</svg>
